<svg preserveAspectRatio="none" width="100%" height="100%" overflow="visible" style="display: block;" viewBox="0 0 146.378 38.8522" fill="none" xmlns="http://www.w3.org/2000/svg">
<g id="Layer_1" clip-path="url(#clip0_0_22)">
<g id="Group">
<path id="Vector" d="M6.53592 0.00117844H0.0060158V3.38558L6.53592 0.00117844Z" fill="var(--fill-0, black)"/>
<path id="Vector_2" d="M8.89548 0.00117844L0.0060158 4.60864V38.8534H146.379V8.58596L134.128 0.00117844H8.89548Z" fill="var(--fill-0, black)"/>
<path id="Vector_3" d="M136.024 0.00116479L146.384 7.26075V0.00116479H136.024Z" fill="var(--fill-0, black)"/>
</g>
<g id="Vector_4">
</g>
<g id="Vector_5">
</g>
<g id="Vector_6">
</g>
<g id="Vector_7">
</g>
<g id="Vector_8">
</g>
<g id="Vector_9">
</g>
<g id="Vector_10">
</g>
<g id="Vector_11">
</g>
<g id="Vector_12">
</g>
<g id="Vector_13">
</g>
<g id="Group_2">
<path id="Vector_14" d="M69.2238 10.0232H66.2973V6.37138H76.1267V10.0232H73.2002V32.1837H69.2229V10.0232H69.2238Z" fill="var(--fill-0, white)"/>
<path id="Vector_15" d="M86.5568 12.448V26.1293C86.5568 30.5316 84.5556 32.4324 81.4543 32.4324C78.3529 32.4324 76.3517 30.5065 76.3517 26.1293V12.448C76.3517 7.97125 78.4022 6.11978 81.4543 6.11978C84.5063 6.11978 86.5568 7.97039 86.5568 12.448ZM81.4543 28.7563C82.2549 28.7563 82.3545 28.2309 82.3545 26.0298V12.5484C82.3545 10.2226 82.2047 9.79675 81.4543 9.79675C80.7038 9.79675 80.5541 10.2217 80.5541 12.5484V26.0298C80.5541 28.2309 80.6787 28.7563 81.4543 28.7563Z" fill="var(--fill-0, white)"/>
</g>
<path id="Vector_16" d="M17.636 32.3232H21.5779V22.2089H22.3465C23.1645 22.2089 23.3878 22.7542 23.3878 24.6135V32.3232H27.5529V25.183C27.5529 23.5748 27.1253 22.2487 26.3558 21.3866L17.636 22.7603V32.3232Z" fill="var(--fill-0, white)"/>
<path id="Vector_17" d="M12.5821 25.7792C12.5821 27.8124 12.1856 28.6546 11.2681 28.6546H10.7721V23.8429L6.8303 24.4635V32.3229H11.243C14.7382 32.3229 16.7714 30.0672 16.7714 26.1254V24.0186C16.7714 23.6248 16.7611 23.2534 16.742 22.902L12.5821 23.5573V25.7783V25.7792Z" fill="var(--fill-0, white)"/>
<path id="Vector_18" d="M28.4966 32.3244H37.496V28.8041H32.4384V21.2926H36.6036V19.7744L28.4966 21.0511V32.3244Z" fill="var(--fill-0, white)"/>
<path id="Vector_19" d="M59.1985 16.215L55.6099 16.7802L55.4921 17.773H54.2769V16.9905L50.335 17.6112V32.3251H54.2769V21.2933H55.4921L56.8061 32.3251H61.5901L58.3676 19.5085L59.1985 16.215Z" fill="var(--fill-0, white)"/>
<path id="Vector_20" d="M44.8532 24.1475H42.4487L43.0191 18.7662L38.9673 19.405L37.6144 32.3281H41.5814L42.1016 27.6678H45.2003L45.7214 32.3281H49.6875L48.1693 17.9552L44.2629 18.5706L44.8532 24.1475Z" fill="var(--fill-0, white)"/>
<g id="Group_3">
<path id="Vector_21" d="M13.3823 17.5132V17.4638C14.7958 17.1912 15.4891 16.0261 15.4891 13.6458V10.5963C15.4891 7.64646 13.2827 5.61323 9.98576 5.61323H5.62239V23.3376L9.56422 22.717V19.5213H9.98576C10.8782 19.5213 11.3741 20.2155 11.3741 21.5043V22.4314L15.5341 21.7761C15.3861 19.1041 14.6746 17.688 13.3823 17.5132ZM11.2997 14.0924C11.2997 16.2494 11.027 16.7454 10.0602 16.7454H9.56422V9.23393H9.98576C11.027 9.23393 11.2997 10.2008 11.2997 11.1927V14.0933V14.0924Z" fill="var(--fill-0, white)"/>
<path id="Vector_22" d="M60.3758 5.61323H55.5917L54.3955 15.6522L57.9842 15.087L60.3758 5.61323Z" fill="var(--fill-0, white)"/>
<path id="Vector_23" d="M53.0667 5.61323H49.1248V16.4831L53.0667 15.8625V5.61323Z" fill="var(--fill-0, white)"/>
<path id="Vector_24" d="M31.2222 16.6701V9.13352H36.2798V5.61322H27.2804V19.9238L35.3874 18.6471V16.6701H31.2222Z" fill="var(--fill-0, white)"/>
<path id="Vector_25" d="M22.675 19.1742V19.0747C24.8814 19.0747 26.3442 17.4881 26.3442 15.0342V11.6376C26.3442 7.22494 24.2616 5.61323 21.1628 5.61323H16.4281V21.635L25.1479 20.2614C24.5299 19.5689 23.6921 19.1742 22.6759 19.1742H22.675ZM22.1539 15.2826C22.1539 17.4145 21.8813 17.9356 21.162 17.9356H21.0382L20.3691 17.9105V9.23394H21.0884C21.9557 9.23394 22.1548 10.2259 22.1548 11.2914V15.2826H22.1539Z" fill="var(--fill-0, white)"/>
<path id="Vector_26" d="M39.0841 5.61323L37.7589 18.274L41.8106 17.6352L42.0339 15.5293C42.2321 13.5211 42.3559 10.9183 42.3559 9.15777H42.5048C42.5048 10.9175 42.6537 13.5454 42.8519 15.5293L43.0544 17.4396L46.9617 16.8242L45.7775 5.61323H39.0841Z" fill="var(--fill-0, white)"/>
</g>
<path id="Vector_27" d="M0 24.2227V25.5617L58.6384 16.3009L58.4359 15.0164L0 24.2227Z" fill="var(--fill-0, white)"/>
<path id="Vector_28" d="M5.62126 23.3389V24.677L59.9734 16.1148L60.0954 14.7567L5.62126 23.3389Z" fill="var(--fill-0, black)"/>
<g id="Group_4">
<g id="Group_5">
<path id="Vector_29" d="M134.615 9.36883H135.078C136.389 9.36883 136.441 10.9892 136.441 12.1465V24.6099L140.762 23.5115V12.0435C140.762 7.33646 138.627 5.6131 135.335 5.6131H130.525V26.1143L134.615 25.0747V9.36883Z" fill="var(--fill-0, white)"/>
<path id="Vector_30" d="M110.261 25.3673C110.261 27.9649 110.107 28.6339 109.361 28.6339C108.615 28.6339 108.46 27.9649 108.46 25.3673V5.6131H104.371V25.7273C104.371 30.1253 106.068 32.4148 109.361 32.4148C112.653 32.4148 114.351 30.1253 114.351 25.7273V5.6131H110.261V25.3673Z" fill="var(--fill-0, white)"/>
<path id="Vector_31" d="M137.343 25.6859V26.4943C137.343 28.8868 137.059 29.4269 136.082 29.4269H135.516V26.1507L131.426 27.1902V33.2337H136.236C139.914 33.2337 141.663 31.0992 141.663 26.8033V24.5875L137.343 25.6859Z" fill="var(--fill-0, white)"/>
<path id="Vector_32" d="M101.205 17.9588V17.9077C102.671 17.6247 103.391 16.4155 103.391 13.9469V10.7832C103.391 7.72249 101.102 5.61309 97.6808 5.61309H93.1539V32.1577H97.7319C101.359 32.1577 103.468 29.8172 103.468 25.7273V23.5409C103.468 20.0171 102.722 18.1648 101.205 17.9597V17.9588ZM97.2437 9.36709H97.6808C98.7611 9.36709 99.0441 10.3703 99.0441 11.3995V14.4091C99.0441 16.6466 98.7611 17.1616 97.7579 17.1616H97.2437V9.36795V9.36709ZM99.1212 25.3664C99.1212 27.4758 98.71 28.35 97.7579 28.35H97.2437V20.0422H97.6808C98.607 20.0422 99.1212 20.7624 99.1212 22.0997V25.3664Z" fill="var(--fill-0, white)"/>
<path id="Vector_33" d="M115.529 5.6131V29.9271L119.619 28.8867V5.6131H115.529Z" fill="var(--fill-0, white)"/>
<path id="Vector_34" d="M121.674 33.2341H130.779V29.5814H125.763V28.6293L121.674 29.6688V33.2341Z" fill="var(--fill-0, white)"/>
<path id="Vector_35" d="M120.778 5.6131V28.5924L124.867 27.5529V5.6131H120.778Z" fill="var(--fill-0, white)"/>
<path id="Vector_36" d="M116.431 33.2409H120.52V29.9699L116.431 31.0103V33.2409Z" fill="var(--fill-0, white)"/>
</g>
<path id="Vector_37" d="M114.432 30.2101L146.379 22.0867V23.3937L114.349 31.5379L114.432 30.2101Z" fill="var(--fill-0, white)"/>
<path id="Vector_38" d="M114.432 30.2066L141.663 23.2829V24.5891L114.349 31.5344L114.432 30.2066Z" fill="var(--fill-0, black)"/>
</g>
</g>
<defs>
<clipPath id="clip0_0_22">
<rect width="146.378" height="38.8522" fill="white"/>
</clipPath>
</defs>
</svg>
