<svg preserveAspectRatio="none" width="100%" height="100%" overflow="visible" style="display: block;" viewBox="0 0 150 32" fill="none" xmlns="http://www.w3.org/2000/svg">
<g id="LOGO white 3" clip-path="url(#clip0_0_75)">
<path id="Vector" d="M10.172 8.369L8.86719 12.9812L16.3331 8.34308L11.4508 25.8415L16.4087 25.8462L23.6213 0L10.172 8.369Z" fill="var(--fill-0, #3395FF)"/>
<path id="Vector_2" fill-rule="evenodd" clip-rule="evenodd" d="M39.1242 7.76474C40.0395 8.76201 40.2473 10.193 39.7467 12.0571C39.3954 13.3683 38.7461 14.4946 37.8002 15.4359C36.8547 16.3773 35.6802 17.0522 34.278 17.4578C35.3781 17.6977 36.0037 18.5007 36.155 19.867L36.8973 25.987H32.3232L31.5619 19.4236C31.4968 18.9071 31.2848 18.547 30.9225 18.3436C30.561 18.1406 30.0672 18.0389 29.4392 18.0389H26.6395L24.5074 25.987H20.2383L25.5269 6.26953H34.3141C36.6049 6.26953 38.2088 6.76748 39.1242 7.76474ZM34.2874 14.1205C34.9714 13.7054 35.4323 13.0545 35.6701 12.1681C35.908 11.2818 35.7955 10.6313 35.3346 10.2161C34.8728 9.80043 34.0227 9.59285 32.7847 9.59285H28.8484L27.4666 14.7443H31.4028C32.6417 14.7443 33.6024 14.5357 34.2874 14.1205Z" fill="var(--fill-0, #072654)"/>
<path id="Vector_3" fill-rule="evenodd" clip-rule="evenodd" d="M51.4598 13.9417L51.9942 11.9476V11.9481H56.124L52.3584 25.9884H48.2286L48.7863 23.9116C48.168 24.631 47.4165 25.1951 46.5316 25.6005C45.6464 26.0069 44.7138 26.2098 43.7346 26.2098C42.5152 26.2098 41.5175 25.9153 40.7432 25.3241C39.9682 24.7332 39.4646 23.8885 39.2323 22.7899C39.0001 21.6914 39.0773 20.4223 39.4637 18.9822C39.8496 17.5419 40.4573 16.259 41.2861 15.1327C42.1149 14.0069 43.084 13.1349 44.1919 12.5158C45.2998 11.8972 46.4548 11.5879 47.6562 11.5879C48.6355 11.5879 49.4569 11.8006 50.1196 12.225C50.7813 12.6495 51.2284 13.2213 51.4598 13.9417ZM48.4744 21.9727C49.2166 21.2713 49.766 20.255 50.1228 18.9263C50.4796 17.597 50.4749 16.5766 50.1112 15.867C49.7479 15.1563 49.0473 14.8004 48.013 14.8004C46.9777 14.8004 46.0754 15.1697 45.3048 15.9077C44.5333 16.6464 43.9729 17.671 43.6218 18.9818C43.2695 20.2934 43.2825 21.2944 43.6615 21.9865C44.0382 22.6791 44.7537 23.0249 45.8083 23.0249C46.8426 23.0249 47.7312 22.6745 48.4744 21.9727Z" fill="var(--fill-0, #072654)"/>
<path id="Vector_4" d="M70.9694 11.9492H58.967L58.128 15.0783H65.113L55.8778 23.0537L55.0898 25.9895H67.4801L68.3201 22.8604H60.8366L70.2114 14.7737L70.9694 11.9492Z" fill="var(--fill-0, #072654)"/>
<path id="Vector_5" fill-rule="evenodd" clip-rule="evenodd" d="M80.3121 11.5879C81.7907 11.5879 83.0046 11.8833 83.9551 12.4737C84.9047 13.0651 85.5312 13.9143 85.8358 15.0217C86.1389 16.1295 86.0931 17.4217 85.6965 18.899C85.3004 20.3761 84.653 21.6678 83.7561 22.7756C82.8583 23.8838 81.775 24.7327 80.5093 25.3236C79.2417 25.915 77.8691 26.2095 76.3906 26.2095C74.8936 26.2095 73.6658 25.915 72.706 25.3236C71.7453 24.7327 71.1146 23.8834 70.8114 22.7756C70.5073 21.6678 70.5532 20.3761 70.9498 18.899C71.346 17.4217 71.9933 16.1295 72.8911 15.0217C73.7884 13.914 74.875 13.0651 76.1518 12.4737C77.4286 11.8833 78.8151 11.5879 80.3121 11.5879ZM79.8887 22.001C80.6172 21.318 81.1674 20.2833 81.5389 18.8991C81.9059 17.5329 81.9088 16.5038 81.5496 15.8116C81.19 15.119 80.4921 14.7727 79.4579 14.7727C78.4042 14.7727 77.5082 15.119 76.7677 15.8116C76.0283 16.5038 75.4752 17.5329 75.1082 18.8991C74.3705 21.6505 75.0823 23.025 77.2449 23.025C78.2791 23.025 79.1603 22.6838 79.8887 22.001Z" fill="var(--fill-0, #072654)"/>
<path id="Vector_6" fill-rule="evenodd" clip-rule="evenodd" d="M128.486 13.9417L129.021 11.9476V11.9481H133.151L129.385 25.9884H125.255L125.813 23.9116C125.195 24.631 124.444 25.1951 123.559 25.6005C122.673 26.0069 121.741 26.2098 120.762 26.2098C119.542 26.2098 118.544 25.9153 117.77 25.3241C116.994 24.7332 116.492 23.8885 116.259 22.7899C116.028 21.6914 116.104 20.4223 116.491 18.9822C116.877 17.5419 117.484 16.259 118.313 15.1327C119.142 14.0069 120.111 13.1349 121.219 12.5158C122.327 11.8972 123.482 11.5879 124.683 11.5879C125.662 11.5879 126.483 11.8006 127.146 12.225C127.808 12.6495 128.255 13.2213 128.486 13.9417ZM125.828 22.4315C126.617 21.6852 127.203 20.6039 127.581 19.1902C127.961 17.776 127.956 16.6903 127.57 15.9351C127.183 15.1791 126.438 14.8004 125.338 14.8004C124.236 14.8004 123.276 15.1934 122.456 15.9785C121.635 16.7646 121.039 17.8546 120.665 19.2492C120.29 20.6448 120.304 21.7098 120.707 22.4463C121.108 23.1831 121.87 23.551 122.99 23.551C124.091 23.551 125.039 23.1782 125.828 22.4315Z" fill="var(--fill-0, #072654)"/>
<path id="Vector_7" d="M98.6763 15.7163L99.7292 11.8946C99.3714 11.7101 98.8975 11.6172 98.3065 11.6172C97.3635 11.6172 96.4555 11.8525 95.5808 12.3236C94.8297 12.7278 94.1897 13.295 93.6496 14.0057L94.1971 11.9478L93.0013 11.9496H90.0682L86.2734 25.9899H90.4607L92.4288 18.6517C92.7158 17.5809 93.2299 16.746 93.9741 16.1459C94.7163 15.5457 95.6428 15.2457 96.7517 15.2457C97.4356 15.2457 98.0766 15.4028 98.6763 15.7163Z" fill="var(--fill-0, #072654)"/>
<path id="Vector_8" fill-rule="evenodd" clip-rule="evenodd" d="M110.295 11.5879C111.495 11.5879 112.484 11.8967 113.261 12.5153C114.037 13.1344 114.539 14.0064 114.763 15.1322C114.987 16.259 114.907 17.5414 114.52 18.9817C114.135 20.4223 113.535 21.6919 112.723 22.7895C111.912 23.888 110.955 24.7332 109.854 25.3236C108.752 25.915 107.593 26.2095 106.373 26.2095C105.393 26.2095 104.57 26.006 103.903 25.6001C103.235 25.1946 102.794 24.631 102.582 23.9116L100.421 31.9697H96.2344L100.528 15.9631C100.534 15.9404 100.539 15.9185 100.545 15.8967C100.55 15.8748 100.556 15.853 100.562 15.8303L101.603 11.9476H104.88V11.9457H105.69L104.986 14.182L104.973 14.2741C105.565 13.4428 106.336 12.7886 107.289 12.3078C108.238 11.8279 109.241 11.5879 110.295 11.5879ZM108.698 21.9867C109.437 21.2945 109.983 20.2935 110.335 18.9819C110.686 17.6716 110.679 16.6466 110.314 15.9078C109.948 15.1698 109.257 14.8 108.241 14.8C107.206 14.8 106.311 15.1566 105.557 15.8667C104.803 16.5769 104.248 17.5967 103.891 18.9264C103.534 20.2561 103.543 21.2714 103.92 21.9728C104.295 22.6746 105 23.0251 106.036 23.0251C107.07 23.0251 107.956 22.6793 108.698 21.9867Z" fill="var(--fill-0, #072654)"/>
<path id="Vector_9" d="M150.486 11.9529L150.489 11.9492H147.953C147.872 11.9492 147.801 11.9515 147.727 11.9529H146.41L145.737 12.8896C145.683 12.9604 145.629 13.0312 145.571 13.1139L145.499 13.2225L140.151 20.6639L139.042 11.9497H134.661L136.879 25.1916L131.98 31.9718H132.119H134.621H136.345L137.532 30.2917C137.567 30.2417 137.597 30.2006 137.635 30.148L139.019 28.1857L139.06 28.1294L145.259 19.3494L150.482 11.9599L150.489 11.9543H150.486V11.9529Z" fill="var(--fill-0, #072654)"/>
<path id="Vector_10" d="M2.68064 18.5874L0.742188 25.8474H10.3398C10.3398 25.8474 14.2654 11.0822 14.2668 11.0781C14.2627 11.0799 2.68064 18.5874 2.68064 18.5874Z" fill="var(--fill-0, #072654)"/>
</g>
<defs>
<clipPath id="clip0_0_75">
<rect width="150" height="32" fill="white"/>
</clipPath>
</defs>
</svg>
